<svg width="1280" height="832" viewBox="0 0 1280 832" fill="none" xmlns="http://www.w3.org/2000/svg">
<g clip-path="url(#clip0_2_48)">
<rect width="1280" height="832" fill="white"/>
<g clip-path="url(#clip1_2_48)">
<path d="M-69 842V247C32.9615 255.779 134.923 264.559 214 266C293.077 267.441 349.269 261.544 414 246C478.731 230.456 552 205.267 624 210C696 214.733 766.731 249.39 851 249C935.269 248.61 1033.08 213.174 1122 207C1210.92 200.826 1290.96 223.913 1371 247V842H-69Z" fill="url(#paint0_linear_2_48)" fill-opacity="0.265"/>
<path d="M-69 842V387C-10.0897 369.441 48.8205 351.882 140 357C231.18 362.118 354.628 389.913 440 388C525.372 386.087 572.667 354.467 639 340C705.333 325.533 790.705 328.221 869 351C947.295 373.779 1018.51 416.651 1101 426C1183.49 435.349 1277.24 411.174 1371 387V842H-69Z" fill="url(#paint1_linear_2_48)" fill-opacity="0.4"/>
<path d="M-69 842V527C21.6846 555.2 112.369 583.4 196 567C279.631 550.6 356.208 489.6 438 493C519.792 496.4 606.8 564.2 688 565C769.2 565.8 844.592 499.6 922 489C999.408 478.4 1078.83 523.4 1154 539C1229.17 554.6 1300.08 540.8 1371 527V842H-69Z" fill="url(#paint2_linear_2_48)" fill-opacity="0.53"/>
<path d="M-69 842V667C-1.02564 657.085 66.9487 647.169 140 631C213.051 614.831 291.18 592.408 389 617C486.82 641.592 604.333 713.2 680 717C755.667 720.8 789.487 656.792 858 638C926.513 619.208 1029.72 645.631 1121 658C1212.28 670.369 1291.64 668.685 1371 667V842H-69Z" fill="url(#paint3_linear_2_48)"/>
</g>
</g>
<defs>
<linearGradient id="paint0_linear_2_48" x1="-69" y1="32006.7" x2="143931" y2="32006.7" gradientUnits="userSpaceOnUse">
<stop offset="0.05" stop-color="#292F6B"/>
<stop offset="0.95" stop-color="#8ED1FC"/>
</linearGradient>
<linearGradient id="paint1_linear_2_48" x1="-69" y1="25878.1" x2="143931" y2="25878.1" gradientUnits="userSpaceOnUse">
<stop offset="0.05" stop-color="#292F6B"/>
<stop offset="0.95" stop-color="#8ED1FC"/>
</linearGradient>
<linearGradient id="paint2_linear_2_48" x1="-69" y1="18217.3" x2="143931" y2="18217.3" gradientUnits="userSpaceOnUse">
<stop offset="0.05" stop-color="#292F6B"/>
<stop offset="0.95" stop-color="#8ED1FC"/>
</linearGradient>
<linearGradient id="paint3_linear_2_48" x1="-69" y1="12401.6" x2="143931" y2="12401.6" gradientUnits="userSpaceOnUse">
<stop offset="0.05" stop-color="#292F6B"/>
<stop offset="0.95" stop-color="#8ED1FC"/>
</linearGradient>
<clipPath id="clip0_2_48">
<rect width="1280" height="832" fill="white"/>
</clipPath>
<clipPath id="clip1_2_48">
<rect width="1440" height="690" fill="white" transform="translate(-69 142)"/>
</clipPath>
</defs>
</svg>
