<svg width="97" height="96" viewBox="0 0 97 96" fill="none" xmlns="http://www.w3.org/2000/svg">
<mask id="mask0_43_21" style="mask-type:luminance" maskUnits="userSpaceOnUse" x="0" y="0" width="97" height="96">
<path d="M97 0H0V96H97V0Z" fill="white"/>
</mask>
<g mask="url(#mask0_43_21)">
<path d="M46.4709 0.037598C12.4489 1.29933 -9.58792 36.5667 4.1372 67.5403C19.8764 103.067 70.4841 106.07 90.1001 72.3753C109.229 39.5093 84.611 -1.38421 46.4709 0.037598ZM78.1008 59.9982C78.5877 58.7929 79.4102 54.4521 79.6324 54.2496C80.1952 53.7318 81.5614 54.3815 81.429 55.7612C81.0556 59.6875 76.999 66.8718 74.4176 69.9366C73.42 71.123 67.3067 76.9514 66.1768 76.7492C63.1556 76.203 68.2241 73.2465 68.517 72.9873C72.8243 69.1129 75.8975 65.4218 78.0958 60.0028L78.1008 59.9982ZM12.047 39.9047C10.3638 42.428 6.74226 40.3658 7.56021 37.8379C7.92899 36.689 9.22915 36.4348 9.84851 35.385C10.8177 33.7418 11.4418 30.6629 12.482 28.629C17.4368 18.9542 26.869 12.3866 37.2987 9.6748C38.6366 9.32641 43.1141 8.98273 43.6295 8.68612C43.9605 8.4931 43.8517 7.60798 45.2368 7.23135C49.1328 6.16736 49.3123 12.7067 45.4119 12.1041C44.192 11.9158 44.1731 10.607 42.1165 10.6587C35.4928 10.8282 25.271 16.1294 20.5809 20.7338C17.9947 23.2714 11.7349 32.3483 11.6404 35.7993C11.5978 37.4236 13.2715 38.0779 12.047 39.9094V39.9047ZM17.8481 46.1379C17.0397 48.6708 15.7584 47.9223 15.9097 45.653C16.2879 40.0035 20.2026 32.0612 23.9188 27.791C25.5499 25.9126 31.474 20.7291 33.6865 20.1359C34.5754 19.8958 35.5873 20.4278 35.0198 21.4635C34.6984 22.052 30.2211 24.5143 29.0958 25.4276C20.8409 32.1411 20.7653 37.0093 17.8529 46.1333L17.8481 46.1379ZM31.3463 78.0344C29.3937 79.9881 25.6823 77.2809 27.6491 74.6022C29.7908 71.6786 33.663 75.7226 31.3463 78.0344ZM47.979 32.2306L33.9087 70.0354C32.7363 73.9903 28.4339 72.7708 29.8949 68.8586L45.7333 25.5359C46.4662 23.7328 49.0333 23.7375 49.7709 25.5359L65.6992 68.7691C67.0514 71.8105 63.8034 73.9668 62.0445 70.9914L47.979 32.2306ZM90.5113 51.2132C90.308 52.3005 89.4334 52.1546 89.2112 52.5077C88.5966 53.4776 88.7005 56.2319 88.3887 57.5548C85.8687 68.143 79.7319 77.5305 70.03 82.9165C67.5575 84.2911 63.534 85.2 61.6946 86.3721C60.962 86.8382 60.9053 87.8409 60.1534 88.1565C56.7021 89.6064 55.0663 85.3787 57.7422 83.83C59.7421 82.6718 60.0635 84.6067 61.2456 84.5032C65.1841 84.1549 73.9354 78.4252 76.791 75.5768C81.1547 71.2314 87.5376 59.6687 87.1453 53.5154C87.0836 52.5832 86.0859 52.3101 85.8544 51.5851C84.4313 47.1453 91.3531 46.7734 90.5113 51.2179V51.2132Z" fill="#FEFEFE"/>
</g>
</svg>
